<svg width="90" height="135" viewBox="0 0 90 135" fill="none" xmlns="http://www.w3.org/2000/svg">
<g clip-path="url(#clip0_87_4163)">
<path d="M87.6905 39.9326L75.6923 27.9345C72.9134 25.1564 68.4096 25.1564 65.6316 27.9345L53.6334 39.9326C50.8554 42.7116 50.8554 47.2144 53.6334 49.9934L65.6316 61.9915C68.4096 64.7695 72.9134 64.7695 75.6923 61.9915L87.6905 49.9934C90.4685 47.2144 90.4685 42.7116 87.6905 39.9326Z" fill="#180E19"/>
<path d="M61.9921 65.631L56.1555 59.7953L41.1715 44.8105L49.8409 36.1411L61.84 24.142C64.618 21.364 64.618 16.8592 61.84 14.0822L49.8409 2.08309C47.0629 -0.694933 42.5591 -0.694933 39.7811 2.08309L31.6019 10.2613L27.782 14.0822L14.0818 27.7815L12.1841 29.6791L2.08364 39.7796C-0.694384 42.5576 -0.694384 47.0623 2.08364 49.8404L14.0818 61.8394H14.0827L27.935 75.6918L29.6589 77.4157L33.5591 81.3158L39.9332 87.6899C42.7112 90.4679 47.2159 90.4679 49.993 87.6899L61.9921 75.6918C64.7701 72.9128 64.7701 68.409 61.9921 65.631Z" fill="#180E19"/>
</g>
<path d="M7.53809 129H10.0781V120.888H11.4053L9.54199 119.947L16.0898 129H18.2871V116.317H15.7471V124.395H14.4287L16.2832 125.335L9.75293 116.317H7.53809V129ZM25.2061 129.202C25.9151 129.202 26.5274 129.114 27.043 128.938C27.5645 128.757 27.9981 128.522 28.3438 128.235C28.6954 127.948 28.9707 127.641 29.17 127.312C29.3692 126.979 29.5069 126.659 29.583 126.354L29.6006 126.267H27.21L27.1836 126.319C27.125 126.442 27.0137 126.58 26.8496 126.732C26.6914 126.879 26.4805 127.008 26.2168 127.119C25.9532 127.23 25.6338 127.286 25.2588 127.286C24.7959 127.286 24.3975 127.184 24.0635 126.979C23.7295 126.773 23.4717 126.478 23.2901 126.091C23.1084 125.704 23.0176 125.238 23.0176 124.693V123.656C23.0176 123.094 23.1084 122.619 23.2901 122.232C23.4776 121.84 23.7295 121.544 24.0459 121.345C24.3682 121.14 24.7344 121.037 25.1446 121.037C25.5606 121.037 25.9239 121.137 26.2344 121.336C26.5508 121.529 26.7969 121.819 26.9727 122.206C27.1543 122.593 27.2452 123.076 27.2452 123.656V124.685L28.4493 123.164H21.7608V124.772H29.6797V123.973C29.6797 122.994 29.4952 122.142 29.126 121.415C28.7569 120.688 28.2295 120.123 27.544 119.719C26.8584 119.314 26.044 119.112 25.1006 119.112C24.1631 119.112 23.3457 119.32 22.6485 119.736C21.9571 120.152 21.4209 120.738 21.0401 121.494C20.6651 122.25 20.4776 123.141 20.4776 124.166V124.175C20.4776 125.212 20.668 126.105 21.0489 126.855C21.4297 127.605 21.9717 128.186 22.6748 128.596C23.3838 129 24.2276 129.202 25.2061 129.202ZM33.2764 129H35.9659L37.6798 122.25H37.838L39.5694 129H42.294L44.8692 119.323H42.3292L40.8878 126.328H40.7296L39.0245 119.323H36.5811L34.8848 126.328H34.7266L33.2852 119.323H30.6925L33.2764 129ZM50.1183 129.202C50.9445 129.202 51.6769 129.073 52.3155 128.815C52.9542 128.552 53.4552 128.183 53.8185 127.708C54.1818 127.233 54.3634 126.677 54.3634 126.038V126.029C54.3634 125.314 54.132 124.746 53.6691 124.324C53.2062 123.902 52.4913 123.586 51.5245 123.375L49.9161 123.032C49.4181 122.927 49.0665 122.792 48.8614 122.628C48.6564 122.464 48.5538 122.253 48.5538 121.995V121.986C48.5538 121.77 48.6183 121.582 48.7472 121.424C48.882 121.266 49.0636 121.143 49.2921 121.055C49.5206 120.967 49.7814 120.923 50.0743 120.923C50.5548 120.923 50.9357 121.025 51.2169 121.23C51.4982 121.43 51.6739 121.661 51.7443 121.925L51.753 121.969H54.1349V121.934C54.0997 121.412 53.921 120.94 53.5988 120.519C53.2823 120.091 52.8282 119.751 52.2364 119.499C51.6446 119.241 50.9269 119.112 50.0831 119.112C49.2804 119.112 48.5743 119.238 47.965 119.49C47.3614 119.742 46.8898 120.097 46.5499 120.554C46.2159 121.005 46.0489 121.535 46.0489 122.145V122.153C46.0489 122.874 46.2775 123.463 46.7345 123.92C47.1974 124.377 47.8888 124.705 48.8087 124.904L50.4259 125.247C50.9181 125.358 51.2696 125.499 51.4806 125.669C51.6915 125.839 51.797 126.053 51.797 126.311V126.328C51.797 126.539 51.7267 126.724 51.5861 126.882C51.4454 127.04 51.2521 127.166 51.006 127.26C50.7599 127.348 50.4728 127.392 50.1446 127.392C49.6407 127.392 49.2394 127.295 48.9405 127.102C48.6476 126.908 48.4484 126.662 48.3429 126.363L48.3253 126.328H45.8029L45.8116 126.363C45.8702 126.914 46.0724 127.403 46.4181 127.831C46.7696 128.259 47.253 128.596 47.8683 128.842C48.4894 129.082 49.2394 129.202 50.1183 129.202ZM60.7746 129H69.924V126.864H63.6223L64.3342 127.33V126.17L63.6223 127.33L66.6809 124.474C67.4543 123.759 68.0637 123.135 68.509 122.602C68.9543 122.068 69.2707 121.573 69.4582 121.116C69.6457 120.653 69.7395 120.182 69.7395 119.701V119.675C69.7395 118.942 69.549 118.301 69.1682 117.75C68.7932 117.199 68.2717 116.769 67.6037 116.458C66.9416 116.147 66.174 115.992 65.301 115.992C64.3752 115.992 63.5607 116.165 62.8576 116.511C62.1604 116.856 61.6125 117.337 61.2141 117.952C60.8215 118.567 60.6252 119.279 60.6252 120.088L60.634 120.132H63.0861V120.088C63.0861 119.684 63.174 119.332 63.3498 119.033C63.5256 118.729 63.7717 118.491 64.0881 118.321C64.4045 118.146 64.7678 118.058 65.1779 118.058C65.5822 118.058 65.9309 118.137 66.2238 118.295C66.5168 118.447 66.7395 118.661 66.8918 118.937C67.05 119.212 67.1291 119.531 67.1291 119.895V119.921C67.1291 120.22 67.0646 120.51 66.9357 120.791C66.8068 121.066 66.5783 121.392 66.2502 121.767C65.9221 122.136 65.4592 122.607 64.8615 123.182L60.7746 127.216V129ZM77.9504 129H80.4817V126.671H82.134V124.544H80.4817V116.317H76.7551C76.4153 116.839 76.0754 117.369 75.7356 117.908C75.3957 118.441 75.0559 118.983 74.7161 119.534C74.3821 120.079 74.0452 120.633 73.7053 121.195C73.3713 121.752 73.0403 122.314 72.7122 122.883C72.384 123.445 72.0588 124.014 71.7366 124.588V126.671H77.9504V129ZM74.1272 124.614V124.474C74.3557 124.063 74.5901 123.65 74.8303 123.234C75.0764 122.812 75.3254 122.394 75.5774 121.978C75.8352 121.556 76.0901 121.137 76.342 120.721C76.5998 120.305 76.8547 119.897 77.1067 119.499C77.3645 119.101 77.6164 118.711 77.8625 118.33H78.0032V124.614H74.1272Z" fill="#180E19"/>
<defs>
<clipPath id="clip0_87_4163">
<rect width="90" height="90" fill="white"/>
</clipPath>
</defs>
</svg>
