<svg width="16" height="16" viewBox="0 0 16 16" fill="none" xmlns="http://www.w3.org/2000/svg">
<g clip-path="url(#clip0_67_3708)">
<path d="M13.8851 8.75508C13.7802 9.88988 13.3544 10.9713 12.6573 11.8729C11.9602 12.7745 11.0208 13.4589 9.94892 13.8461C8.87706 14.2333 7.71711 14.3072 6.60479 14.0591C5.49246 13.8111 4.47378 13.2514 3.66794 12.4456C2.86209 11.6397 2.30241 10.6211 2.05439 9.50874C1.80637 8.39642 1.88026 7.23647 2.26743 6.16461C2.65459 5.09275 3.33901 4.15332 4.24059 3.45624C5.14218 2.75917 6.22365 2.33328 7.35845 2.22841C6.69406 3.12725 6.37435 4.23471 6.45747 5.34935C6.5406 6.46399 7.02103 7.51178 7.81139 8.30214C8.60175 9.0925 9.64953 9.57293 10.7642 9.65605C11.8788 9.73918 12.9863 9.41947 13.8851 8.75508V8.75508Z" stroke="#180E19" stroke-width="1.5" stroke-linecap="round" stroke-linejoin="round"/>
</g>
<defs>
<clipPath id="clip0_67_3708">
<rect width="16" height="16" fill="white"/>
</clipPath>
</defs>
</svg>
