<svg width="32" height="32" viewBox="0 0 32 32" fill="none" xmlns="http://www.w3.org/2000/svg">
<g filter="url(#filter0_d_67_1894)">
<path d="M18.25 19.5V15C18.25 14.801 18.171 14.6103 18.0303 14.4696C17.8897 14.329 17.6989 14.25 17.5 14.25H14.5C14.3011 14.25 14.1103 14.329 13.9697 14.4696C13.829 14.6103 13.75 14.801 13.75 15V19.5C13.75 19.6989 13.671 19.8896 13.5303 20.0303C13.3897 20.1709 13.1989 20.25 13 20.25H8.5C8.30109 20.25 8.11032 20.1709 7.96967 20.0303C7.82902 19.8896 7.75 19.6989 7.75 19.5V10.8281C7.75168 10.7243 7.77411 10.6219 7.81597 10.5269C7.85783 10.4319 7.91828 10.3462 7.99375 10.275L15.4937 3.45933C15.632 3.33284 15.8126 3.2627 16 3.2627C16.1874 3.2627 16.368 3.33284 16.5062 3.45933L24.0062 10.275C24.0817 10.3462 24.1422 10.4319 24.184 10.5269C24.2259 10.6219 24.2483 10.7243 24.25 10.8281V19.5C24.25 19.6989 24.171 19.8896 24.0303 20.0303C23.8897 20.1709 23.6989 20.25 23.5 20.25H19C18.8011 20.25 18.6103 20.1709 18.4697 20.0303C18.329 19.8896 18.25 19.6989 18.25 19.5Z" fill="#180E19" stroke="#180E19" stroke-width="1.5" stroke-linecap="round" stroke-linejoin="round"/>
</g>
<defs>
<filter id="filter0_d_67_1894" x="0" y="0" width="32" height="32" filterUnits="userSpaceOnUse" color-interpolation-filters="sRGB">
<feFlood flood-opacity="0" result="BackgroundImageFix"/>
<feColorMatrix in="SourceAlpha" type="matrix" values="0 0 0 0 0 0 0 0 0 0 0 0 0 0 0 0 0 0 127 0" result="hardAlpha"/>
<feOffset dy="4"/>
<feGaussianBlur stdDeviation="2"/>
<feComposite in2="hardAlpha" operator="out"/>
<feColorMatrix type="matrix" values="0 0 0 0 0 0 0 0 0 0 0 0 0 0 0 0 0 0 0.25 0"/>
<feBlend mode="normal" in2="BackgroundImageFix" result="effect1_dropShadow_67_1894"/>
<feBlend mode="normal" in="SourceGraphic" in2="effect1_dropShadow_67_1894" result="shape"/>
</filter>
</defs>
</svg>
