<svg width="24" height="24" viewBox="0 0 24 24" fill="none" xmlns="http://www.w3.org/2000/svg">
<path d="M12 14.5C13.3807 14.5 14.5 13.3807 14.5 12C14.5 10.6193 13.3807 9.5 12 9.5C10.6193 9.5 9.5 10.6193 9.5 12C9.5 13.3807 10.6193 14.5 12 14.5Z" stroke="#180E19" stroke-width="1.5" stroke-linecap="round" stroke-linejoin="round"/>
<path d="M18.1667 14.5C18.0557 14.7514 18.0226 15.0302 18.0717 15.3005C18.1207 15.5708 18.2496 15.8203 18.4417 16.0167L18.4917 16.0667C18.6466 16.2215 18.7696 16.4053 18.8534 16.6076C18.9373 16.8099 18.9805 17.0268 18.9805 17.2458C18.9805 17.4649 18.9373 17.6817 18.8534 17.8841C18.7696 18.0864 18.6466 18.2702 18.4917 18.425C18.3369 18.58 18.1531 18.7029 17.9507 18.7868C17.7484 18.8706 17.5315 18.9138 17.3125 18.9138C17.0935 18.9138 16.8766 18.8706 16.6743 18.7868C16.4719 18.7029 16.2881 18.58 16.1333 18.425L16.0833 18.375C15.8869 18.1829 15.6375 18.054 15.3672 18.005C15.0968 17.956 14.818 17.9891 14.5667 18.1C14.3202 18.2056 14.11 18.381 13.9619 18.6046C13.8139 18.8282 13.7344 19.0902 13.7333 19.3583V19.5C13.7333 19.942 13.5577 20.366 13.2452 20.6785C12.9326 20.9911 12.5087 21.1667 12.0667 21.1667C11.6246 21.1667 11.2007 20.9911 10.8882 20.6785C10.5756 20.366 10.4 19.942 10.4 19.5V19.425C10.3935 19.1492 10.3043 18.8817 10.1438 18.6573C9.98325 18.4328 9.75895 18.2619 9.5 18.1667C9.24866 18.0557 8.96984 18.0227 8.69951 18.0717C8.42918 18.1207 8.17973 18.2496 7.98334 18.4417L7.93334 18.4917C7.77855 18.6466 7.59473 18.7696 7.3924 18.8534C7.19007 18.9373 6.97319 18.9805 6.75417 18.9805C6.53514 18.9805 6.31827 18.9373 6.11594 18.8534C5.9136 18.7696 5.72979 18.6466 5.575 18.4917C5.42004 18.3369 5.29711 18.1531 5.21324 17.9507C5.12936 17.7484 5.08619 17.5315 5.08619 17.3125C5.08619 17.0935 5.12936 16.8766 5.21324 16.6743C5.29711 16.4719 5.42004 16.2881 5.575 16.1333L5.625 16.0833C5.81712 15.8869 5.94599 15.6375 5.99501 15.3672C6.04402 15.0968 6.01093 14.818 5.9 14.5667C5.79437 14.3202 5.61897 14.11 5.39539 13.9619C5.17181 13.8139 4.90982 13.7344 4.64167 13.7333H4.5C4.05797 13.7333 3.63405 13.5577 3.32149 13.2452C3.00893 12.9326 2.83334 12.5087 2.83334 12.0667C2.83334 11.6246 3.00893 11.2007 3.32149 10.8882C3.63405 10.5756 4.05797 10.4 4.5 10.4H4.575C4.85083 10.3936 5.11834 10.3043 5.34275 10.1438C5.56716 9.98326 5.7381 9.75896 5.83334 9.50001C5.94426 9.24866 5.97735 8.96985 5.92834 8.69952C5.87932 8.42919 5.75045 8.17974 5.55834 7.98334L5.50834 7.93334C5.35337 7.77855 5.23044 7.59474 5.14657 7.39241C5.0627 7.19008 5.01952 6.9732 5.01952 6.75418C5.01952 6.53515 5.0627 6.31827 5.14657 6.11594C5.23044 5.91361 5.35337 5.7298 5.50834 5.57501C5.66312 5.42005 5.84694 5.29712 6.04927 5.21324C6.2516 5.12937 6.46848 5.0862 6.6875 5.0862C6.90653 5.0862 7.12341 5.12937 7.32574 5.21324C7.52807 5.29712 7.71188 5.42005 7.86667 5.57501L7.91667 5.62501C8.11307 5.81712 8.36252 5.946 8.63284 5.99501C8.90317 6.04403 9.18199 6.01094 9.43334 5.90001H9.5C9.74648 5.79437 9.95668 5.61897 10.1047 5.3954C10.2528 5.17182 10.3323 4.90983 10.3333 4.64168V4.50001C10.3333 4.05798 10.5089 3.63406 10.8215 3.3215C11.1341 3.00894 11.558 2.83334 12 2.83334C12.442 2.83334 12.866 3.00894 13.1785 3.3215C13.4911 3.63406 13.6667 4.05798 13.6667 4.50001V4.57501C13.6677 4.84317 13.7472 5.10516 13.8953 5.32873C14.0433 5.55231 14.2535 5.72771 14.5 5.83334C14.7513 5.94427 15.0302 5.97736 15.3005 5.92835C15.5708 5.87933 15.8203 5.75046 16.0167 5.55834L16.0667 5.50834C16.2215 5.35338 16.4053 5.23045 16.6076 5.14658C16.8099 5.0627 17.0268 5.01953 17.2458 5.01953C17.4649 5.01953 17.6817 5.0627 17.8841 5.14658C18.0864 5.23045 18.2702 5.35338 18.425 5.50834C18.58 5.66313 18.7029 5.84695 18.7868 6.04928C18.8706 6.25161 18.9138 6.46848 18.9138 6.68751C18.9138 6.90654 18.8706 7.12341 18.7868 7.32574C18.7029 7.52807 18.58 7.71189 18.425 7.86668L18.375 7.91668C18.1829 8.11308 18.054 8.36252 18.005 8.63285C17.956 8.90318 17.9891 9.182 18.1 9.43334V9.50001C18.2056 9.74648 18.381 9.95669 18.6046 10.1048C18.8282 10.2528 19.0902 10.3323 19.3583 10.3333H19.5C19.942 10.3333 20.366 10.5089 20.6785 10.8215C20.9911 11.1341 21.1667 11.558 21.1667 12C21.1667 12.442 20.9911 12.866 20.6785 13.1785C20.366 13.4911 19.942 13.6667 19.5 13.6667H19.425C19.1568 13.6677 18.8949 13.7472 18.6713 13.8953C18.4477 14.0433 18.2723 14.2535 18.1667 14.5Z" stroke="#180E19" stroke-width="1.5" stroke-linecap="round" stroke-linejoin="round"/>
</svg>
