<svg width="24" height="23" viewBox="0 0 24 23" fill="none" xmlns="http://www.w3.org/2000/svg">
<g clip-path="url(#clip0_87_1503)" filter="url(#filter0_d_87_1503)">
<path d="M4.66666 8C4.66666 8 7.33332 2.66667 12 2.66667C16.6667 2.66667 19.3333 8 19.3333 8C19.3333 8 16.6667 13.3333 12 13.3333C7.33332 13.3333 4.66666 8 4.66666 8Z" stroke="#180E19" stroke-width="1.5" stroke-linecap="round" stroke-linejoin="round"/>
<path d="M12 10C13.1046 10 14 9.10457 14 8C14 6.89543 13.1046 6 12 6C10.8954 6 10 6.89543 10 8C10 9.10457 10.8954 10 12 10Z" stroke="#180E19" stroke-width="1.5" stroke-linecap="round" stroke-linejoin="round"/>
</g>
<defs>
<filter id="filter0_d_87_1503" x="0" y="0" width="24" height="24" filterUnits="userSpaceOnUse" color-interpolation-filters="sRGB">
<feFlood flood-opacity="0" result="BackgroundImageFix"/>
<feColorMatrix in="SourceAlpha" type="matrix" values="0 0 0 0 0 0 0 0 0 0 0 0 0 0 0 0 0 0 127 0" result="hardAlpha"/>
<feOffset dy="4"/>
<feGaussianBlur stdDeviation="2"/>
<feComposite in2="hardAlpha" operator="out"/>
<feColorMatrix type="matrix" values="0 0 0 0 0 0 0 0 0 0 0 0 0 0 0 0 0 0 0.25 0"/>
<feBlend mode="normal" in2="BackgroundImageFix" result="effect1_dropShadow_87_1503"/>
<feBlend mode="normal" in="SourceGraphic" in2="effect1_dropShadow_87_1503" result="shape"/>
</filter>
<clipPath id="clip0_87_1503">
<rect width="16" height="16" fill="white" transform="translate(4)"/>
</clipPath>
</defs>
</svg>
