<svg width="99" height="24" viewBox="0 0 99 24" fill="none" xmlns="http://www.w3.org/2000/svg">
<g clip-path="url(#clip0_67_1822)">
<path d="M23.3841 10.6487L20.1846 7.44916C19.4436 6.70835 18.2426 6.70835 17.5017 7.44916L14.3022 10.6487C13.5614 11.3897 13.5614 12.5905 14.3022 13.3315L17.5017 16.531C18.2426 17.2718 19.4436 17.2718 20.1846 16.531L23.3841 13.3315C24.1249 12.5905 24.1249 11.3897 23.3841 10.6487Z" fill="#180E19"/>
<path d="M16.5312 17.5016L14.9748 15.9454L10.9791 11.9494L13.2909 9.63761L16.4907 6.43785C17.2315 5.69705 17.2315 4.49579 16.4907 3.75523L13.2909 0.555483C12.5501 -0.185324 11.3491 -0.185324 10.6083 0.555483L8.42721 2.73634L7.40857 3.75523L3.75516 7.40838L3.24912 7.91443L0.555666 10.6079C-0.185141 11.3487 -0.185141 12.5499 0.555666 13.2908L3.75516 16.4905H3.75541L7.44937 20.1845L7.90907 20.6442L8.94912 21.6842L10.6489 23.384C11.3897 24.1248 12.5909 24.1248 13.3315 23.384L16.5312 20.1845C17.2721 19.4434 17.2721 18.2424 16.5312 17.5016Z" fill="#180E19"/>
</g>
<path d="M35.2817 17H37.3984V10.2397H38.5044L36.9517 9.45605L42.4082 17H44.2393V6.43115H42.1226V13.1621H41.0239L42.5693 13.9458L37.1274 6.43115H35.2817V17ZM49.9776 17.1685C50.5684 17.1685 51.0787 17.0952 51.5083 16.9487C51.9429 16.7974 52.3042 16.6021 52.5923 16.3628C52.8853 16.1235 53.1148 15.8672 53.2808 15.5938C53.4468 15.3154 53.5616 15.0493 53.625 14.7954L53.6397 14.7222H51.6475L51.6255 14.7661C51.5767 14.8687 51.4839 14.9834 51.3472 15.1104C51.2154 15.2324 51.0396 15.3398 50.8199 15.4326C50.6001 15.5254 50.334 15.5718 50.0215 15.5718C49.6358 15.5718 49.3038 15.4863 49.0254 15.3154C48.7471 15.1445 48.5323 14.8979 48.3809 14.5757C48.2295 14.2534 48.1538 13.8652 48.1538 13.4111V12.5469C48.1538 12.0781 48.2295 11.6826 48.3809 11.3604C48.5371 11.0332 48.7471 10.7866 49.0108 10.6206C49.2793 10.4497 49.5845 10.3643 49.9263 10.3643C50.273 10.3643 50.5757 10.4473 50.8345 10.6133C51.0982 10.7744 51.3033 11.0161 51.4497 11.3384C51.6011 11.6606 51.6768 12.0635 51.6768 12.5469V13.4038L52.6802 12.1367H47.1065V13.4771H53.7056V12.8105C53.7056 11.9951 53.5518 11.2847 53.2442 10.6792C52.9366 10.0737 52.4971 9.60254 51.9258 9.26562C51.3545 8.92871 50.6758 8.76025 49.8897 8.76025C49.1084 8.76025 48.4273 8.93359 47.8462 9.28027C47.2701 9.62695 46.8233 10.1152 46.5059 10.7451C46.1934 11.375 46.0371 12.1172 46.0371 12.9717V12.979C46.0371 13.8433 46.1958 14.5879 46.5132 15.2129C46.8306 15.8379 47.2823 16.3213 47.8682 16.6631C48.459 17 49.1621 17.1685 49.9776 17.1685ZM56.6754 17H58.9166L60.3448 11.375H60.4766L61.9195 17H64.19L66.336 8.93604H64.2193L63.0181 14.7734H62.8863L61.4654 8.93604H59.4293L58.0157 14.7734H57.8839L56.6827 8.93604H54.5221L56.6754 17ZM70.6827 17.1685C71.3712 17.1685 71.9816 17.061 72.5138 16.8462C73.046 16.6265 73.4635 16.3188 73.7662 15.9233C74.069 15.5278 74.2203 15.064 74.2203 14.5317V14.5244C74.2203 13.9287 74.0275 13.4551 73.6417 13.1035C73.256 12.752 72.6603 12.4883 71.8546 12.3125L70.5143 12.0269C70.0992 11.939 69.8063 11.8267 69.6354 11.6899C69.4645 11.5532 69.379 11.3774 69.379 11.1626V11.1553C69.379 10.9746 69.4327 10.8184 69.5402 10.6865C69.6525 10.5547 69.8038 10.4521 69.9943 10.3789C70.1847 10.3057 70.402 10.269 70.6461 10.269C71.0465 10.269 71.3639 10.3545 71.5983 10.5254C71.8326 10.6914 71.9791 10.8843 72.0377 11.104L72.045 11.1406H74.0299V11.1113C74.0006 10.6768 73.8517 10.2837 73.5831 9.93213C73.3195 9.57568 72.941 9.29248 72.4479 9.08252C71.9547 8.86768 71.3566 8.76025 70.6534 8.76025C69.9845 8.76025 69.3961 8.86523 68.8883 9.0752C68.3854 9.28516 67.9923 9.58057 67.7091 9.96143C67.4308 10.3374 67.2916 10.7793 67.2916 11.2871V11.2944C67.2916 11.895 67.4821 12.3857 67.8629 12.7666C68.2487 13.1475 68.8248 13.4209 69.5914 13.5869L70.9391 13.8726C71.3492 13.9653 71.6422 14.0825 71.818 14.2241C71.9938 14.3657 72.0817 14.5439 72.0817 14.7588V14.7734C72.0817 14.9492 72.0231 15.103 71.9059 15.2349C71.7887 15.3667 71.6276 15.4717 71.4225 15.5498C71.2174 15.623 70.9781 15.6597 70.7047 15.6597C70.2848 15.6597 69.9503 15.5791 69.7013 15.418C69.4571 15.2568 69.2911 15.0518 69.2032 14.8027L69.1886 14.7734H67.0865L67.0939 14.8027C67.1427 15.2617 67.3112 15.6694 67.5992 16.0259C67.8922 16.3823 68.295 16.6631 68.8077 16.8682C69.3253 17.0684 69.9503 17.1685 70.6827 17.1685ZM79.508 17H87.1325V15.2202H81.8811L82.4743 15.6084V14.6416L81.8811 15.6084L84.4299 13.228C85.0744 12.6323 85.5822 12.1123 85.9533 11.668C86.3244 11.2236 86.5881 10.811 86.7443 10.4302C86.9006 10.0444 86.9787 9.65137 86.9787 9.25098V9.229C86.9787 8.61865 86.82 8.08398 86.5026 7.625C86.1901 7.16602 85.7556 6.80713 85.1989 6.54834C84.6472 6.28955 84.0075 6.16016 83.28 6.16016C82.5085 6.16016 81.8298 6.3042 81.2438 6.59229C80.6628 6.88037 80.2062 7.28076 79.8742 7.79346C79.5471 8.30615 79.3835 8.89941 79.3835 9.57324L79.3908 9.60986H81.4343V9.57324C81.4343 9.23633 81.5075 8.94336 81.654 8.69434C81.8005 8.44043 82.0056 8.24268 82.2692 8.10107C82.5329 7.95459 82.8356 7.88135 83.1774 7.88135C83.5144 7.88135 83.8049 7.94727 84.049 8.0791C84.2932 8.20605 84.4787 8.38428 84.6057 8.61377C84.7375 8.84326 84.8034 9.10938 84.8034 9.41211V9.43408C84.8034 9.68311 84.7497 9.9248 84.6423 10.1592C84.5349 10.3887 84.3444 10.6597 84.071 10.9722C83.7976 11.2798 83.4118 11.6729 82.9138 12.1514L79.508 15.5132V17ZM93.7937 17H95.9031V15.0591H97.28V13.2866H95.9031V6.43115H92.7976C92.5144 6.86572 92.2312 7.30762 91.948 7.75684C91.6648 8.20117 91.3816 8.65283 91.0984 9.11182C90.8201 9.56592 90.5393 10.0273 90.2561 10.4961C89.9778 10.96 89.7019 11.4287 89.4285 11.9023C89.155 12.3711 88.884 12.8447 88.6155 13.3232V15.0591H93.7937V17ZM90.6077 13.3452V13.228C90.7981 12.8862 90.9934 12.542 91.1936 12.1953C91.3987 11.8438 91.6062 11.4946 91.8162 11.1479C92.031 10.7964 92.2434 10.4473 92.4534 10.1006C92.6682 9.75391 92.8806 9.41455 93.0906 9.08252C93.3054 8.75049 93.5154 8.42578 93.7204 8.1084H93.8376V13.3452H90.6077Z" fill="#180E19"/>
<defs>
<clipPath id="clip0_67_1822">
<rect width="24" height="24" fill="white"/>
</clipPath>
</defs>
</svg>
