<svg width="45" height="42" viewBox="0 0 45 42" fill="none" xmlns="http://www.w3.org/2000/svg">
<rect x="1" y="1" width="43" height="40" rx="5" stroke="#180E19" stroke-width="1.5"/>
<path d="M23 17.25C23 15.1875 24.7344 13.4719 26.7969 13.5C27.5192 13.5083 28.2237 13.7251 28.8257 14.1243C29.4278 14.5234 29.9017 15.0879 30.1906 15.75H33.5L30.4719 18.7781C30.2764 21.8199 28.9299 24.6731 26.7061 26.7576C24.4823 28.8422 21.548 30.0015 18.5 30C15.5 30 14.75 28.875 14.75 28.875C14.75 28.875 17.75 27.75 19.25 25.5C19.25 25.5 13.25 22.5 14.75 14.25C14.75 14.25 18.5 18 23 18.75V17.25Z" stroke="#180E19" stroke-width="1.3" stroke-linecap="round" stroke-linejoin="round"/>
</svg>
