<svg width="16" height="16" viewBox="0 0 16 16" fill="none" xmlns="http://www.w3.org/2000/svg">
<g clip-path="url(#clip0_116_5986)">
<g clip-path="url(#clip1_116_5986)">
<path d="M15.0165 1.6415C14.3781 2.09182 13.6713 2.43624 12.9232 2.6615C12.5217 2.19984 11.9881 1.87263 11.3945 1.72412C10.801 1.57561 10.1762 1.61296 9.60457 1.83114C9.03296 2.04931 8.54214 2.43777 8.1985 2.94398C7.85486 3.45019 7.67498 4.04972 7.68318 4.6615V5.32817C6.5116 5.35854 5.35069 5.09871 4.30385 4.5718C3.25701 4.04489 2.35672 3.26726 1.68318 2.30817C1.68318 2.30817 -0.983487 8.30817 5.01651 10.9748C3.64353 11.9068 2.00795 12.3741 0.349846 12.3082C6.34985 15.6415 13.6832 12.3082 13.6832 4.6415C13.6826 4.4558 13.6647 4.27056 13.6298 4.08817C14.3102 3.41716 14.7904 2.56998 15.0165 1.6415V1.6415Z" stroke="#180E19" stroke-width="1.5" stroke-linecap="round" stroke-linejoin="round"/>
</g>
</g>
<defs>
<clipPath id="clip0_116_5986">
<rect width="16" height="16" fill="white"/>
</clipPath>
<clipPath id="clip1_116_5986">
<rect width="16" height="16" fill="white"/>
</clipPath>
</defs>
</svg>
